<svg width="32" height="32" viewBox="0 0 28 28" fill="none" xmlns="http://www.w3.org/2000/svg">
<path d="M26.0003 25.9998L20.2096 20.2091M20.2096 20.2091C21.2001 19.2186 21.9858 18.0427 22.5219 16.7485C23.058 15.4543 23.3339 14.0673 23.3339 12.6665C23.3339 11.2657 23.058 9.87857 22.5219 8.58439C21.9858 7.29022 21.2001 6.1143 20.2096 5.12379C19.2191 4.13327 18.0432 3.34755 16.749 2.81148C15.4548 2.27542 14.0677 1.99951 12.6669 1.99951C11.2661 1.99951 9.87905 2.27542 8.58488 2.81148C7.2907 3.34755 6.11479 4.13327 5.12427 5.12379C3.12383 7.12423 2 9.83741 2 12.6665C2 15.4955 3.12383 18.2087 5.12427 20.2091C7.12471 22.2096 9.83789 23.3334 12.6669 23.3334C15.496 23.3334 18.2092 22.2096 20.2096 20.2091Z" stroke="white" stroke-width="2.5" stroke-linecap="round" stroke-linejoin="round"/>
</svg>
